<?xml version="1.0" standalone="no"?>
<!DOCTYPE svg PUBLIC "-//W3C//DTD SVG 20010904//EN"
 "http://www.w3.org/TR/2001/REC-SVG-20010904/DTD/svg10.dtd">
<svg version="1.0" xmlns="http://www.w3.org/2000/svg"
 width="980.000000pt" height="980.000000pt" viewBox="0 0 980.000000 980.000000"
 preserveAspectRatio="xMidYMid meet">

<g transform="translate(0.000000,980.000000) scale(0.100000,-0.100000)"
fill="#000000" stroke="none">
<path d="M3952 6705 c-333 -85 -602 -169 -703 -220 -41 -21 -56 -39 -126 -152
-351 -563 -552 -1102 -634 -1707 -24 -173 -36 -605 -24 -831 l7 -136 104 -72
c237 -163 522 -320 769 -420 119 -49 340 -127 359 -127 21 0 256 374 256 409
0 6 -24 22 -52 34 -107 43 -329 159 -335 174 -6 16 60 82 83 83 6 0 74 -25
150 -56 367 -147 689 -209 1094 -209 405 0 727 62 1094 209 76 31 144 56 150
56 23 -1 89 -67 83 -83 -6 -15 -228 -131 -334 -174 -29 -12 -53 -28 -53 -34 0
-35 235 -409 256 -409 19 0 240 78 359 127 247 100 532 257 769 420 l104 72 7
136 c12 225 0 658 -24 830 -83 609 -282 1144 -634 1708 -90 145 -94 148 -273
210 -197 69 -741 217 -795 217 -14 0 -35 -33 -85 -131 l-65 -131 -32 6 c-133
24 -252 31 -527 31 -275 0 -394 -7 -527 -31 l-32 -6 -65 131 c-56 110 -70 131
-89 131 -12 -1 -118 -25 -235 -55z m261 -1515 c188 -58 317 -251 317 -473 0
-202 -102 -377 -266 -458 -65 -32 -75 -34 -174 -34 -102 0 -109 1 -182 38
-130 64 -220 186 -253 342 -18 88 -18 132 0 220 38 180 159 320 320 371 61 19
164 17 238 -6z m1670 -18 c131 -61 229 -191 262 -347 18 -88 18 -132 0 -220
-33 -156 -123 -278 -253 -342 -73 -37 -80 -38 -182 -38 -99 0 -109 2 -174 34
-320 157 -361 647 -73 867 118 91 286 109 420 46z"/>
</g>
</svg>
